<svg width="80" height="80" viewBox="0 0 80 80" fill="none" xmlns="http://www.w3.org/2000/svg">
<path fill-rule="evenodd" clip-rule="evenodd" d="M40 80C62.0914 80 80 62.0914 80 40C80 17.9086 62.0914 0 40 0C17.9086 0 0 17.9086 0 40C0 62.0914 17.9086 80 40 80Z" fill="white"/>
<path d="M31 18C23.8325 18 18 23.8325 18 31V49C18 56.1675 23.8325 62 31 62H49C56.1675 62 62 56.1675 62 49V31C62 23.8325 56.1675 18 49 18H31ZM31 20H49C55.0865 20 60 24.9135 60 31V49C60 55.0865 55.0865 60 49 60H31C24.9135 60 20 55.0865 20 49V31C20 24.9135 24.9135 20 31 20ZM52 26C51.4696 26 50.9609 26.2107 50.5858 26.5858C50.2107 26.9609 50 27.4696 50 28C50 28.5304 50.2107 29.0391 50.5858 29.4142C50.9609 29.7893 51.4696 30 52 30C52.5304 30 53.0391 29.7893 53.4142 29.4142C53.7893 29.0391 54 28.5304 54 28C54 27.4696 53.7893 26.9609 53.4142 26.5858C53.0391 26.2107 52.5304 26 52 26ZM40 29C33.9367 29 29 33.9367 29 40C29 46.0633 33.9367 51 40 51C46.0633 51 51 46.0633 51 40C51 33.9367 46.0633 29 40 29ZM40 31C44.9824 31 49 35.0176 49 40C49 44.9824 44.9824 49 40 49C35.0176 49 31 44.9824 31 40C31 35.0176 35.0176 31 40 31Z" fill="black"/>
</svg>
