<svg width="197" height="400" viewBox="0 0 197 400" fill="none" xmlns="http://www.w3.org/2000/svg">
<path d="M184.5 112.6V118.6C178.3 119.4 172.3 121.4 166.5 124.6C160.7 127.8 154.9 133.1 149.1 140.5L91.2 214.6L97.8 199.9L169.8 300.7C173.2 305.7 176.9 309.6 180.9 312.4C184.9 315.2 190 317.4 196.2 319V325C191.4 324.6 185.4 324.4 178.2 324.4C171.2 324.2 165.2 324.1 160.2 324.1C156.8 324.1 152.6 324.2 147.6 324.4C142.8 324.4 136.7 324.6 129.3 325V319C136.1 318.6 140.4 317.4 142.2 315.4C144 313.4 143.3 310.1 140.1 305.5L96.3 239.5C92.3 233.3 88.7 228.7 85.5 225.7C82.5 222.5 79.3 220.4 75.9 219.4C72.7 218.4 68.6 217.8 63.6 217.6V211.6C72 211.4 79 209.8 84.6 206.8C90.4 203.6 95.2 199.6 99 194.8L127.8 158.2C134.4 149.8 138.9 142.7 141.3 136.9C143.7 131.1 143.6 126.7 141 123.7C138.4 120.5 132.9 118.8 124.5 118.6V112.6C128.3 112.8 132.2 113 136.2 113.2C140.2 113.2 144.1 113.3 147.9 113.5C151.9 113.5 155.6 113.5 159 113.5C164.2 113.5 169 113.4 173.4 113.2C177.8 113 181.5 112.8 184.5 112.6ZM89.1 112.6V118.6C82.3 118.8 77.1 119.6 73.5 121C70.1 122.2 67.8 124.6 66.6 128.2C65.4 131.6 64.8 137 64.8 144.4V293.2C64.8 300.4 65.4 305.8 66.6 309.4C67.8 313 70.1 315.4 73.5 316.6C77.1 317.8 82.3 318.6 89.1 319V325C84.5 324.6 78.7 324.4 71.7 324.4C64.9 324.2 58 324.1 51 324.1C43.2 324.1 35.9 324.2 29.1 324.4C22.3 324.4 16.8 324.6 12.6 325V319C19.4 318.6 24.5 317.8 27.9 316.6C31.5 315.4 33.9 313 35.1 309.4C36.3 305.8 36.9 300.4 36.9 293.2V144.4C36.9 137 36.3 131.6 35.1 128.2C33.9 124.6 31.5 122.2 27.9 121C24.5 119.6 19.4 118.8 12.6 118.6V112.6C16.8 112.8 22.3 113 29.1 113.2C35.9 113.4 43.2 113.5 51 113.5C58 113.5 64.9 113.4 71.7 113.2C78.7 113 84.5 112.8 89.1 112.6Z" fill="url(#paint0_linear_29_2)"/>
<path d="M60.688 205.232H63.792V226H60.688V205.232ZM63.856 214.96L73.136 205.232H76.88L67.536 214.832L77.808 226H73.776L63.856 214.96ZM86.748 205.232H89.852V226H86.748V205.232ZM101.777 205.232H104.881V226H101.777V205.232ZM104.945 214.96L114.225 205.232H117.969L108.625 214.832L118.897 226H114.865L104.945 214.96ZM133.885 205.232H137.469L145.533 226H142.301L139.933 219.696H131.037L128.701 226H125.629L133.885 205.232ZM139.165 217.552L135.645 208.176H135.357L131.837 217.552H139.165Z" fill="white"/>
<path d="M184.5 112.6V118.6C178.3 119.4 172.3 121.4 166.5 124.6C160.7 127.8 154.9 133.1 149.1 140.5L91.2 214.6L97.8 199.9L169.8 300.7C173.2 305.7 176.9 309.6 180.9 312.4C184.9 315.2 190 317.4 196.2 319V325C191.4 324.6 185.4 324.4 178.2 324.4C171.2 324.2 165.2 324.1 160.2 324.1C156.8 324.1 152.6 324.2 147.6 324.4C142.8 324.4 136.7 324.6 129.3 325V319C136.1 318.6 140.4 317.4 142.2 315.4C144 313.4 143.3 310.1 140.1 305.5L96.3 239.5C92.3 233.3 88.7 228.7 85.5 225.7C82.5 222.5 79.3 220.4 75.9 219.4C72.7 218.4 68.6 217.8 63.6 217.6V211.6C72 211.4 79 209.8 84.6 206.8C90.4 203.6 95.2 199.6 99 194.8L127.8 158.2C134.4 149.8 138.9 142.7 141.3 136.9C143.7 131.1 143.6 126.7 141 123.7C138.4 120.5 132.9 118.8 124.5 118.6V112.6C128.3 112.8 132.2 113 136.2 113.2C140.2 113.2 144.1 113.3 147.9 113.5C151.9 113.5 155.6 113.5 159 113.5C164.2 113.5 169 113.4 173.4 113.2C177.8 113 181.5 112.8 184.5 112.6ZM89.1 112.6V118.6C82.3 118.8 77.1 119.6 73.5 121C70.1 122.2 67.8 124.6 66.6 128.2C65.4 131.6 64.8 137 64.8 144.4V293.2C64.8 300.4 65.4 305.8 66.6 309.4C67.8 313 70.1 315.4 73.5 316.6C77.1 317.8 82.3 318.6 89.1 319V325C84.5 324.6 78.7 324.4 71.7 324.4C64.9 324.2 58 324.1 51 324.1C43.2 324.1 35.9 324.2 29.1 324.4C22.3 324.4 16.8 324.6 12.6 325V319C19.4 318.6 24.5 317.8 27.9 316.6C31.5 315.4 33.9 313 35.1 309.4C36.3 305.8 36.9 300.4 36.9 293.2V144.4C36.9 137 36.3 131.6 35.1 128.2C33.9 124.6 31.5 122.2 27.9 121C24.5 119.6 19.4 118.8 12.6 118.6V112.6C16.8 112.8 22.3 113 29.1 113.2C35.9 113.4 43.2 113.5 51 113.5C58 113.5 64.9 113.4 71.7 113.2C78.7 113 84.5 112.8 89.1 112.6Z" fill="url(#paint1_linear_29_2)"/>
<defs>
<linearGradient id="paint0_linear_29_2" x1="99" y1="130" x2="99" y2="187.5" gradientUnits="userSpaceOnUse">
<stop stop-color="white"/>
<stop offset="0.9999" stop-color="white"/>
<stop offset="1" stop-color="white" stop-opacity="0"/>
</linearGradient>
<linearGradient id="paint1_linear_29_2" x1="99" y1="251" x2="99" y2="241" gradientUnits="userSpaceOnUse">
<stop offset="0.9999" stop-color="white"/>
<stop offset="1" stop-color="white" stop-opacity="0"/>
</linearGradient>
</defs>
</svg>
