<svg width="80" height="80" viewBox="0 0 80 80" fill="none" xmlns="http://www.w3.org/2000/svg">
<path fill-rule="evenodd" clip-rule="evenodd" d="M40 80C62.0914 80 80 62.0914 80 40C80 17.9086 62.0914 0 40 0C17.9086 0 0 17.9086 0 40C0 62.0914 17.9086 80 40 80Z" fill="white"/>
<path fill-rule="evenodd" clip-rule="evenodd" d="M34.4935 46.9668L34.4918 31.8755L48.9018 39.4472L34.4935 46.9668ZM66.1335 29.2604C66.1335 29.2604 65.6118 25.5593 64.0135 23.9295C61.9852 21.7894 59.7118 21.7794 58.6702 21.6552C51.2068 21.1113 40.0118 21.1113 40.0118 21.1113H39.9885C39.9885 21.1113 28.7935 21.1113 21.3302 21.6552C20.2868 21.7794 18.0152 21.7894 15.9852 23.9295C14.3868 25.5593 13.8668 29.2604 13.8668 29.2604C13.8668 29.2604 13.3335 33.6077 13.3335 37.9533V42.0287C13.3335 46.376 13.8668 50.7216 13.8668 50.7216C13.8668 50.7216 14.3868 54.4226 15.9852 56.0525C18.0152 58.1925 20.6802 58.1254 21.8668 58.3486C26.1335 58.7615 40.0002 58.8891 40.0002 58.8891C40.0002 58.8891 51.2068 58.8723 58.6702 58.3285C59.7118 58.2026 61.9852 58.1925 64.0135 56.0525C65.6118 54.4226 66.1335 50.7216 66.1335 50.7216C66.1335 50.7216 66.6668 46.376 66.6668 42.0287V37.9533C66.6668 33.6077 66.1335 29.2604 66.1335 29.2604Z" fill="black"/>
</svg>
